<svg id="eqEfmro09dk1" xmlns="http://www.w3.org/2000/svg" xmlns:xlink="http://www.w3.org/1999/xlink" viewBox="0 0 150 150" shape-rendering="geometricPrecision" text-rendering="geometricPrecision"><path d="M73.778291,50.410753L61.389073,62.481298L48.999854,50.410753c-.619055-.551922-1.574341-.531299-2.167698.046795s-.614522,1.508808-.04803,2.111941L59.16706,64.640034L46.780984,76.707518c-.411928.382471-.5789.952322-.436297,1.489024s.572404.956042,1.123072,1.095737s1.135801-.022173,1.528952-.422963L61.389073,66.801831L73.778291,78.872378c.619055.551921,1.574342.531299,2.167698-.046795s.614522-1.508809.04803-2.111941L63.604801,64.643096L75.994019,52.569488c.411928-.382471.578899-.952322.436297-1.489024s-.572403-.956042-1.123072-1.095737-1.1358.022173-1.528952.422963Z" transform="matrix(.993857 0 0 1.020192 13.989607 9.056315)"/></svg>
