<svg id="eeGByNXPxRO1" xmlns="http://www.w3.org/2000/svg" xmlns:xlink="http://www.w3.org/1999/xlink" viewBox="0 0 150 150" shape-rendering="geometricPrecision" text-rendering="geometricPrecision"><path d="M91.819921,50.743432L71.297815,71.267228L50.775709,50.743432c-1.025433-.938444-2.607816-.903379-3.59068.079566s-1.017925,2.565458-.079559,3.590976L67.617164,74.93777l-20.5169,20.518591c-.682338.650323-.958918,1.619252-.722704,2.531818s.948158,1.625578,1.860312,1.863104s1.881396-.037701,2.532631-.719173L71.297815,78.613519L91.819921,99.137316c1.025433.938443,2.607817.903379,3.590681-.079566s1.017925-2.565459.079559-3.590976L74.968055,74.942977L95.490161,54.413974c.682338-.650323.958917-1.619252.722703-2.531818s-.948157-1.625578-1.860312-1.863104-1.881395.037701-2.532631.719173Z" transform="translate(3.704788 0.064827)"/></svg>
